<?xml version="1.0" standalone="no"?>
<!DOCTYPE svg PUBLIC "-//W3C//DTD SVG 20010904//EN"
 "http://www.w3.org/TR/2001/REC-SVG-20010904/DTD/svg10.dtd">
<svg version="1.0" xmlns="http://www.w3.org/2000/svg"
 width="512.000000pt" height="512.000000pt" viewBox="0 0 512.000000 512.000000"
 preserveAspectRatio="xMidYMid meet">

<g transform="translate(0.000000,512.000000) scale(0.100000,-0.100000)"
fill="#000000" stroke="none">
<path d="M1914 4354 c-11 -16 -42 -33 -79 -46 -33 -11 -71 -30 -85 -43 -14
-12 -41 -28 -61 -34 -55 -18 -129 -121 -129 -180 0 -11 -6 -26 -13 -33 -40
-39 -67 -99 -67 -146 0 -37 -5 -53 -21 -68 -12 -10 -30 -38 -41 -61 -17 -39
-17 -45 -3 -78 12 -30 13 -50 5 -106 -11 -75 -7 -106 17 -155 14 -28 14 -40
-1 -128 -20 -122 -21 -339 -1 -506 15 -129 18 -296 6 -340 -7 -23 -8 -22 -25
23 -21 52 -93 137 -118 137 -10 0 -17 -11 -20 -30 -3 -16 -2 -28 0 -25 9 9 94
-60 109 -88 8 -16 20 -56 28 -90 11 -51 33 -143 51 -214 2 -9 31 -13 99 -13
75 0 94 3 88 13 -13 20 -34 80 -43 122 -5 22 -13 60 -19 85 -5 25 -11 88 -12
140 -1 52 -6 111 -11 130 -23 98 -39 289 -27 340 4 19 16 94 25 165 39 314
127 436 362 501 57 16 75 16 224 3 224 -19 622 -19 708 1 96 22 309 20 383 -4
32 -10 70 -28 85 -40 15 -13 41 -31 57 -40 86 -51 148 -186 176 -386 10 -74
23 -153 29 -175 12 -51 13 -134 1 -171 -6 -16 -17 -115 -25 -221 -17 -207 -46
-368 -77 -421 -10 -18 -15 -30 -9 -27 5 3 10 1 10 -4 0 -7 33 -11 88 -11 l89
0 11 53 c20 97 50 222 57 242 11 28 86 105 103 105 7 0 10 5 7 10 -3 6 -2 10
4 10 6 0 8 7 5 15 -4 8 -14 15 -24 15 -31 0 -67 -38 -101 -105 -18 -36 -35
-65 -38 -65 -3 0 -3 53 1 117 4 65 12 257 19 427 18 443 7 508 -101 644 -38
48 -43 60 -46 113 -4 93 -39 156 -131 241 -16 15 -147 84 -413 219 -103 52
-198 87 -261 95 -30 4 -86 20 -126 35 -61 25 -85 29 -170 29 -74 0 -111 5
-151 20 -52 20 -122 27 -122 12 0 -4 -17 -12 -38 -18 -39 -10 -47 -9 -119 22
-51 23 -96 18 -119 -12z"/>
<path d="M1985 3023 c-77 -6 -172 -44 -222 -89 -36 -32 -45 -45 -37 -54 9 -9
30 -6 89 14 100 34 224 36 303 6 63 -24 89 -25 141 -4 43 17 53 31 44 62 -8
33 -211 74 -318 65z"/>
<path d="M3030 3019 c-100 -13 -183 -36 -197 -55 -18 -25 -17 -30 13 -53 42
-33 85 -36 166 -11 93 28 232 24 318 -9 65 -25 80 -26 80 -6 0 26 -69 79 -140
106 -75 29 -159 39 -240 28z"/>
<path d="M1920 2762 c-116 -44 -190 -132 -190 -225 0 -25 16 -13 24 18 8 32
56 99 88 124 81 63 190 79 292 41 66 -25 149 -103 166 -157 17 -53 34 -67 27
-23 -8 54 -12 65 -30 93 -9 15 -17 30 -18 34 -1 17 -72 67 -127 89 -69 28
-165 31 -232 6z"/>
<path d="M2981 2758 c-30 -11 -61 -26 -68 -32 -31 -25 -78 -79 -75 -87 1 -5
-2 -9 -7 -9 -5 0 -11 -13 -14 -29 -3 -16 -9 -40 -13 -55 -3 -15 -2 -26 4 -26
5 0 13 11 16 25 16 63 97 146 164 167 23 7 42 16 42 20 0 5 34 8 75 8 127 0
215 -58 265 -175 11 -25 22 -45 26 -45 4 0 4 20 1 45 -22 159 -240 261 -416
193z"/>
<path d="M1961 2703 c-51 -26 -91 -95 -91 -158 0 -63 25 -111 77 -148 34 -24
47 -28 98 -25 54 3 58 4 42 19 -15 16 -14 19 21 43 46 32 66 34 59 6 -9 -35
12 -22 34 22 17 32 20 54 17 100 -5 62 -23 96 -71 132 -38 28 -139 33 -186 9z
m54 -73 c12 -37 -25 -61 -69 -44 -19 7 -21 50 -3 57 31 13 66 6 72 -13z"/>
<path d="M3007 2706 c-121 -66 -129 -241 -14 -313 36 -23 52 -27 95 -25 29 2
52 8 52 13 0 5 -7 9 -15 9 -26 0 -16 16 31 49 44 32 45 32 51 12 16 -60 57 29
51 110 -5 63 -23 97 -71 133 -36 27 -140 33 -180 12z m41 -94 c-2 -23 -8 -27
-33 -27 -24 0 -31 5 -33 24 -5 32 23 54 50 40 13 -7 18 -19 16 -37z"/>
<path d="M1180 421 c0 -10 14 -33 32 -50 l32 -31 1318 0 1317 0 31 30 c16 16
30 38 30 50 0 26 -7 25 -30 -2 l-18 -23 -1314 0 -1313 0 -29 23 c-35 27 -56
28 -56 3z"/>
</g>
</svg>
